<mxfile host="65bd71144e">
    <diagram id="2ecqR7hbbf4Q-paOLmdF" name="Page-1">
        <mxGraphModel dx="677" dy="547" grid="1" gridSize="10" guides="1" tooltips="1" connect="1" arrows="1" fold="1" page="1" pageScale="1" pageWidth="850" pageHeight="1100" math="0" shadow="0">
            <root>
                <mxCell id="0"/>
                <mxCell id="1" parent="0"/>
                <mxCell id="9" value="infeo" style="swimlane;whiteSpace=wrap;html=1;" parent="1" vertex="1">
                    <mxGeometry x="20" y="145" width="460" height="205" as="geometry"/>
                </mxCell>
                <mxCell id="2" value="GPS Data&lt;div&gt;Database&lt;/div&gt;" style="shape=cylinder3;whiteSpace=wrap;html=1;boundedLbl=1;backgroundOutline=1;size=15;" parent="9" vertex="1">
                    <mxGeometry x="380" y="70" width="60" height="80" as="geometry"/>
                </mxCell>
                <mxCell id="17" style="edgeStyle=none;html=1;entryX=0;entryY=0.5;entryDx=0;entryDy=0;" parent="9" source="13" target="16" edge="1">
                    <mxGeometry relative="1" as="geometry"/>
                </mxCell>
                <mxCell id="13" value="Data Collection" style="swimlane;whiteSpace=wrap;html=1;" parent="9" vertex="1">
                    <mxGeometry x="15" y="40" width="145" height="140" as="geometry"/>
                </mxCell>
                <mxCell id="12" value="" style="shape=image;verticalLabelPosition=bottom;labelBackgroundColor=default;verticalAlign=top;aspect=fixed;imageAspect=0;image=data:image/png,iVBORw0KGgoAAAANSUhEUgAAAgAAAAIACAYAAAD0eNT6AAAAAXNSR0IArs4c6QAAIABJREFUeAHtnQfYNUdVxw+9BkIzQBQMEKoKIsXQexEINYD0joh0DQrSm3SUXkURhFClCwIioZcQQpEOAgKhdwhF7z+5m+9+97vb5pzdndn9zfO8z73v3Z3Zmd+cmfnv7swZMwIEIAABCEAAAhCAAAQgAAEIQAACEIAABCAAAQhAAAIQgAAEIAABCEAAAhCAAAQgAAEIQAACEIAABCAAAQhAAAIQgAAEIAABCEAAAhCAAAQgAAEIQAACEIAABCAAAQhAAAIQgAAEIAABCEAAAhCAAAQgAAEIQAACEIAABCAAAQhAAAIQgAAEIAABCEAAAhCAAAQgAAEIQAACEIAABCAAAQhAAAIQgAAEIAABCEAAAhCAAAQgAAEIQAACEIAABCAAAQhAAAIQgAAEIAABCEAAAhCAAAQgAAEIQAACEIAABCAAAQhAAAIQgAAEIAABCEAAAhCAAAQgAAEIQAACEIAABCAAAQhAAAIQgAAEIAABCEAAAhCAAAQgAAEIQAACEIAABCAAAQhAAAIQgAAEIAABCEAAAhCAAAQgAAEIQAACEIAABCAAAQhAAAIQgAAEIAABCEAAAhCAAAQgAAEIQAACEIAABCAAAQhAAAIQgAAEIAABCEAAAhCAAAQgAAEIQAACEIAABCAAAQhAAAIQgAAEIAABCEAAAhCAAAQgAAEIQAACEIAABCAAAQhAAAIQgAAEIAABCEAAAhCAAAQgAAEIQAACEIAABCAAAQhAAAIQgAAEIAABCEAAAhCAAAQgAAEIQAACEIAABCAAAQhAAAIQgAAEIAABCEAAAhCAAAQgAAEIQAACEIAABCAAAQhAAAIQgAAEIAABCEAAAhCAAAQgAAEIQAACEIAABCAAAQhAAAIQgAAEIAABCEAAAhCAAAQgAAEIQAACEIAABCAAAQhAAAIQgAAEIAABCEAAAhCAAAQgAAEIQAACEIAABCAAAQhAAAIQgAAEIAABCEAAAhCAAAQgAAEIQAACEIAABCAAAQhAAAIQgAAEIAABCEAAAhCAAAQgAAEIQAACEIAABCAAAQhAAAIQgAAEIAABCEAAAhCAAAQgAAEIQAACEIAABCAAAQhAAAIQgAAEIAABCEAAAhCAAAQgAAEIQAACEIAABCAAAQhAAAIQgAAEIAABCEAAAhCAAAQgAAEIQAACEIAABCAAAQhAAAIQgAAEIAABCEAAAhCAAAQgAAEIQAACEIAABCAAAQhAAAIQgAAEIAABCEAAAhCAAAQgAAEIQAACEIAABCAAAQhAAAIQgAAEIAABCEAAAhCAAAQgAAEIQAACEIAABCAAAQhAAAIQgAAEIAABCEAAAhCAAAQgAAEIQAACEIAABCAAAQhAAAIQgAAEIAABCEAAAhCAAAQgAAEIQAACEIAABCAAAQhAAAIQgAAEIAABCEAAAhCAAAQgAAEIQAACEIAABCAAAQhAAAIQgAAEIAABCEAAAhCAAAQgAAEIQAACEIAABCAAAQhAAAIQgAAEIAABCEAAAhCAAAQgAAEIQAACEIAABCAAAQhAAAIQgAAEIAABCEAAAhCAAAQgAAEIQAACEIAABCAAAQhAAAIQgAAEIAABCEAAAhCAAAQgAAEIQAACEIAABCAAAQhAAAIQgAAEIAABCEAAAhCAAAQgAAEIQAACEIAABCAwewKnNLM7mdmbV59fNbPjzOz/+IMBNjCIDfzEzD5jZi80s6vMvnehgBCAQLYELmFmn6ejH6SjR0QhJLvYwOvM7EzZ9hBkDAIQCCFwkJndb638X25mz1zdCdzCzM4Qknr/RK5lZj9l8GfwxwYmt4FPmNn+/ZswMSAAgdwJ7GdmzzezX9V0tN82s7uNXAgN/j+ryU+XuxbO4e4WG4i1gSNG7gO4HAQgMDCBA83smI4D7fPM7GQD50fJM/jHdtwMhPCMsIHfmNklR2j/XAICEBiBwNnN7JMdB/+qA3mZmZ18wLxdkzv/yR/3VnXNJ8Jh2waeNGDbJ2kIQGAkAimDf9UZDCUCGPwZcCob4zNPWzhypP6Jy0AAAgMR0GN/LfPxdLIvCn4dwGN/X3146pK4sO9qA58dqE8iWQhAYAQCnjv/7U4i6kkAd/4MQNu2xf952sQXR+ijuAQEIDAAgcjBv+qgvSKAwT/Pjr6qXz6pn00bQAAM0DGTJASGJjDE4F91DKkigMGfwaWyIT7LsAUEwNA9NelDIJjAkIN/1XH3FQEM/mV0+FX98kl9yQYQAMGdM8lBYEgCYwz+1eDQVQQw+DOYVDbDZ1m2gAAYsrcmbQgEEhhz8K868jYRwOBfVodf1Suf1JtsAAEQ2EGTFASGIjDF4F8NEnUigMGfQaSyET7LtAUEwFA9NulCIIjAlIN/1bFvi4AhBn/5MpBPAwIEINCdwO86fIAgALpz5kwIjE4gh8F/WwQw+I9uBlwQArUEEAC1aDgAgXIJRHj4qwbvqM+3DuDbnzv/cm2UnE9PAAEwfR2QAwiEEsjpzj9KPOxKh8E/1GxIbIEEEAALrHSKPF8CDP7zrVtKBoFoAgiAaKKkB4GJCAzx2P9nZvZKx0ShXXfu3t+485/IwLjs7AggAGZXpRRoiQSGuPP/hZldbw3zMZmIAAb/JVo3ZR6KAAJgKLKkC4GRCAw9+FfFmFoEMPhXNcEnBGIIIABiOJIKBCYhMNbgXxVuKhHA4F/VAJ8QiCOAAIhjSUoQGJXA2IN/VbixRQCDf0WeTwjEEkAAxPIkNQiMQmCqwb8q3FgigMG/Is4nBOIJIADimZIiBAYlMPXgXxVuaBHA4F+R5hMCwxBAAAzDlVQhMAiBXAb/qnBDiQAG/4ownxAYjgACYDi2pAyBUAJDrfO/liOX1zazXwcvEWTwd1QIUSHQgwACoAcsToXAVARyu/MXBzb2mcoauC4EYgggAGI4kgoEBiPA4D8YWhKGwKIJIAAWXf0UPncCDP651xD5g0C5BBAA5dYdOZ85AQb/mVcwxYPAxAQQABNXAJeHwC4CDP67qPAbBCAQSQABEEmTtCAQQIDBPwAiSUAAAq0EEACtiDgBAuMRYPAfjzVXgsDSCSAAlm4BlD8bAgz+2VQFGYHAIgggABZRzRQydwIM/rnXEPmDwPwIIADmV6eUqDACOXr4k3fAn2Xq4e/kZnYlM/uLVR7vb2a3M7PzFVbnZBcCORBAAORQC+RhsQQY/LtX/UnN7B5m9s0aYXKkmV26e3KcCYHFE0AALN4EADAVAQb/7uRPY2avqxn4/2/j9+PM7E7dk+VMCCyaAAJg0dVP4aciwODfj/yLNwb5zQF/13dtTnSdfslzNgQWSQABsMhqp9BTEmDCXz/62nFw10Df9NtXzey0/S7D2RBYHAEEwOKqnAJPSYA7//7035wgACQObtX/UsSAwKIIIAAWVd0UdkoCDP796Z/KzH6RKAD02oAAAQjUE0AA1LPhCATCCPDYPw3lQYmDv54AvDvtksSCwGIIIAAWU9UUdCoCDP7p5H/fIQA+ln5ZYkJgEQQQAIuoZgo5FQEGfx95BICPH7Eh0EQAAdBEh2MQcBBg8HfAW0dFAPgZkgIE6gggAOrI8DsEHAQY/B3wNqIiADZg8BUCwQQQAMFASQ4CzPaPswEEQBxLUoLANgEEwDYR/oeAg8DpzOwox8S1Xc5ttCmPNudJDTlv7NNWJgRAG6F8j5/DzG5iZo8wMy3JlCvnt5rZK83s+Wb2l2Z2VTOTm2fCNAQ8AkAeN7/LX3YMPmlmrzezu5rZ6acxq+Ve9QkM/qGVjwAIxTl4YhLA2rDpPWamAWKXoN3+7cdm9vK1yD3J4DnkApsEPAJgux75v5u9j8npW7hF3zT3Yb/vH7yF7pLv/KuaQgBUJPL+PIWZHW5m6nA8HZyenl0z76LOKncIAJ+9emx9rLi/MbM7zMpqMy3MTZ2d36ZBMPifUMkIgEyNfSNbFzezowNtX+3gn81MgpowLAEEwPwFgNrTz1evBS4xrCmR+oODOkG5vr2eA6fuoCQgNgWF9/tnzEyTG8cOCICxife73g3N7CfBtlbZ6mdXcwcO7pcdzu5JAAEQ209Wtpvj5zFmdvKe9sHpPQg8KqAj5M5/b+AIgL155PTf7Xu850/tEL+BCBi0yhEAyxEAaoN3H9SaFp644KZ2dIrH4L+vASEA9mWSwy9aWfJLp713bSufN7MDcij0DPOAAPD12V1tOJfztGrjbDO04yyKdCFHh8hj/91ViADYzWXKX/Uq6PsOW0/pDN9iZqwQiK91BMCyBIDa3nPizYgUKwJvT+gYGfwrevt+IgD2ZTL1L69OsPGUQX87DjOZ42seAbA8AaDluZeONyVSFIE/7DkBj8f+zXaDAGjmM/bRa0w0+EsM6PHlWcYu8MyvhwBYngBQW3q/mZ105rY9WfEOWy+72L6D2f7/B841zyV7+OtaOQiArqTGOe+1EwoAtZ8nj1PMxVwFAbBMAaC2dKfFWPkEBf3jFpfA7zQzzRlIDUsY/MUGAZBqIfHx9A7+exMLgONYFRBasQiA5QqAY83sTKHWRGJ7EdAjliub2WPWvtBftJrI9LCA9y9LGfwFEwGwl0lN+o8c82w/xZrif7kNJsQQQADkYdNTtCNd82kxZkQqYxGYk5OfLswQAF0ojXOONhaZqqPavK5cm15mnCLP/ioIgDxsetO+x/z+KzO72OytfCYFXNrgr2pDAORlvF/KRAS8l2WBIYaBAFi2AJDYOJK2FNKWBk1kSY/9N0EiADZpTP/9HxIFwAfM7EpmdpCZyYOgZvR773S09wbBR8AjACQG9Q6Zv+kYXDjIFfetfGZE7CEJLPHOv+KJAKhI5PF5vp7LXDXIf8XMzryV/WsHCAB5CDzVVrr824+ARwB8od+lOHsgAhF70Mjl9hkHyh/JOggsefAXNgSAw3gGinqvHoO33AVfpSYfb+iRTt3TgvvWpM3P3QggALpxyvksiWBt1lbXRrr+/vicC7nEvC198FedIwDytPy/MTNNIGrqXH68Wgp7/YbsXyRgPwG9Sth+utBwSQ5tEUAAbAEp9N9DW9piUzutjkmsq78lZECAwf+ESkAAZGCMNVk4ZLWk9U1mpln5VSeiT3m31JJXDS5t4VlbcTfT6fr9SW0X4XgtAQRALZriDrw+oC29rbhSzzDDDP57KhUBsIdFrt90By4XwfKAeVkz269HRrXL3w+dHZf20jhvj2ty6h4CCIA9LEr/pjYg8d1VONedp3ZMmIgAg//e4BEAe/OY438PCui0jpgjmBHKhAAYAfKIl3hUQFvSpN3TjZjnyS51RTN7rpl93Mw0C/KTZvaS9XvLKbYeXepSvyYDQAA00ZnHsdOY2f8EdFyXmweOUUuBABgV9+AX08Ad0ZYkJGYbtG71dS0dzvvM7NwjEmDw3w0bAbCby9x+lW+AukeSXX9Xm51CuJdcFwiAkmtvd971CL9rm6k77+dmpiW/swsHmtl/dwT0zZHeLTL415sZAqCezZyOaN+MD3Vsl3Wdln7n/WU/q0AA9ONVytn/EdCWtEx3VkGDf9/1kh8zs5MPSIHBvxkuAqCZz5yOauOspsG9yzE5p8E5UHerQAB0Z1XSmfIQqJ0zu7SZpnOuV1Khm/KaMvhXYO7YlLDjGIN/OzwEQDujOZ0R4RzoPnMCMnBZEAADA54w+ScECAB52zz1hGUIufTZ1xP8qgG97+c7QnKxdyLM9t+bR91/CIA6MvP8/UJBzoHOMk884aVCAIQjzSZBLcf9WoAI0CqdYoPnzr8SClpbGRm48+9OEwHQndVcznx2QKf1xLnAGLgcCICBAU+cvDb5qcax1M+fdnTqNXFR9718xOBfQevj3GTfnOz5hcF/D4su3xAAXSjN65zfMrMfODsuOQea5Szm4KpGAAQDzSw5rYp5l7MtaQx8VWblas2O97F/NfDrU51JxPIiHvu3Vts+JyAA9kGyiB8idjh72SJI+QqJAPDxKyH27wW8VtM4qB08iwiRg78K/t6AUjP4p0FEAKRxKz1WlHMguSYm1BNAANSzmdORpwU8BdAKuuxX2EQ+9q+eAni3HOWxf3pTQgCksys95h0COi2J94ind6WzrMt/rgJA7V47Sd5lYX+3MbPLD7DDpZzfHRvQng6vM6Qcfh9i8JdbxdM6Csfg74DHdsA+eIXHlnOgDwd0WjcpnMOQ2c9JAJzMzO5kZlp6Vt18LfVTr51fvHJNf/7AyhdbL88frdzna5zNLgwx+Gv2/6UcJWXwd8BbR+UJgJ9hySlcJaDT0oCS/aPLiSopFwFwejOL2M7WO8DlFl87ZUYJWAnq9we0J+2Xk1WIfucvI5AC83hB4p1/jIkgAGI4lpzKmwI6rXuXDGDAvOcgADQwvTagjnMbvKPy80szi9ro6o/M7NcBrK80oE32SvpsCe592ypGd/66e08N3Pmnkts3HgJgXyZL+yXKOdCZlwauQ3lzEAC3DhiQ2vr00o9/1czO0KE+u5yiHXC9PIZ2kd+lHCbl+M6AwmzCYPDvhH60kxAAo6HO+kLPCWjnco1K2JtADgJA27Fv9sF8383jsXtXXfJ/umn+bgDzeyXnICjinwYUYtPYGPyDKiYwGQRAIMyCk5JzIL0P3Wyvfb/jHGhfA5haABzkrNO+NlDy+ZFb9N49gPv3zeyAfU1qvF/koz+qQnnnP1699bkSAqAPrXmf+5CA9v7SeSPqXbqpBcDVAuo0agwoIZ3X9K7h3RG04uKoAPYv2J388L9qi96I7Q5V6dz5D19fqVdAAKSSm1+8COdAvzEznAPtsY2pBcCNAwahEgbuyDxedU/1ub5pYqHagydvin+IKxeJkTXz35PxzbiHJuZB0Zjw54DXISoCoAOkBZ2irbk3227Kd5wD7TEYBIDfnlJs0BPnE2amG+CI8M8B7elDZsfPx4vIT+c0zhiQ8aoS3pi4Tpilfp2rK/lEBEAyup0R5RVP710vvXayFNWR7LzYAD9q4u9HAtq+7jwJZgiA8gSAxq0/DzJevcPXu/xqLEz9vGtQfnolE7HXcVXgfzOzU/a4Onf+PWA5TkUAOOCto57XzNRAX2Fm39lq7PLs9UIzu4D/MqOlgHOgONQIAP/gV40hY36qHZ8lyAzk6t6b928H5qdzsZ4ekPHNgncVAQz+navIfSICoD9CdQyHmdmzzewLHduI9vyWq9BSwps7lmuzfW9/n3wZUwawEQD+wW/brsb6/ylB9nOKVX+h1wrefD8zKD+dk5HxammEN+Ob8dtEAIN/5+oJOREB0I7x1Ks9vzUx6DFm9kGHpy9N6NE79hLChQO2ONVa6KU7B0IAxI4fm2PJ0N/lIVBb/UYE9R/e/P5q5dHx4hGZ6ZPG7QIyvl3wujkBvPPvUzMx5yIA9uWo9/gXM7O/Ws3A/Xcz0937tg2n/v8TMzvPvpfM8pfnBZT78Ykl01wE7Y/+JDM7YjWf4pWrV4iPXq8wKGn3QQRAXNtJbXOeeG9NtN9d0WTHnrwo7num2H0zYn3wdsG3nwRw57/LZIb/DQFwAmOteqke68st6La9Rv6vvcNLCOc0sx87WegJoiZF9glaPvWphuvqKcxF+yQ44bklCwC93tJrrpL/IjzyXSfIfn4noD2pH9JN+ejh/g0NMrVzrJ4EcOc/enWeeMGlCgCtcrmBmWkw/vQAtt3UJjTBSI5CSggPDWDzrz0KKu+jetTZxE/HJEzk5Cb3ULIA0KTW0oPmobTZUtvxzyauYtvF7oEB+fmmme2/K/Ghf4voDLZhv2vtKGj7d8//n8l1T+WhKygh/aUIAA242qlLQlaP9eSZ0mNj3riebbATqjk5yunM7H+drDT3Qcsi24Leb/ZxPqblVRpgcw4IgGlrR8twI/ZCuE9QMbRttsYnb/8RNUGxd7GGeBLghbEZn8G/X5XOXQBcxsxebGZajrdpJ1N/151AKUGrF7y8JPTbwpEJ1+nzdKHt+kMcRwAMQbVfmhHukH8Q6Jf/Ggl2vt3+NEHxD/phiDs7VxHA4N+/jucqAKT8nxHginO74UX9r302Sgl6eqLtSb1lv1FDgbXqICV9dYRnbUh36kMIgKlr4ITrvyHRvjZtMnIZ3msD8iNRPdmE2NxEAIN/WkObowBQo4iYcbvZ+KO/6xWEHq+XEjRPx8tAbVRroneFv3akf/1dCWbyGwIgj4o4X8BrP81NiZp8qpVA2iPH26ZuPiXeXEQAg3+6FcxRANwloGF5G2aX+FrmVlLQksgu5Wo65541BX6bI+1J3KTWlGP7ZwTANpHp/teS0ibb7HLs7YHZf1hAfr6+Wip7hsA89U5qahHA4N+7yvaKMDcBoDvMrwQ0rC6dgfecJ+5VE/n/o3eOXWboN3H51o4ZzNqF0HM3dIeM0SEA8qkczZw/NqBvaHqV1ae0svuunkSb2tTf9bnoEOdOJQIY/P21OTcBcMWABt7U2CKPHe2vvtFTeH4A38dt5do7KUoTPXMNCIC8aubPAuxXg7a8g0YEiQlvn6LXiReMyIwnjbFFAIO/p7b2xJ2bANByHW+DGiu+lsfJAVFJIcI5kDosbaBUBQmCVObyrKilVbkGBEBeNaMJrRLeqfZWxdOclaggfzhVuqmfkR4Lk8s1lghg8E+uon0izk0APCigMaU2wpR4t9ynRvL/IcIfyEs2inmUo87etJFOjl8RAPnVypUd9la1cS0rlhiOCAcH7blzw4jMeNMYWgQw+HtraO/4cxMApUwArDqSf9y7Oor47/RBzoH06F5L+H7t6JDvlzkxBECeFfQqh80N0XYfG5CfL+eysmgoEcDgH9+Y5iYAtEynaqAlfGrCYonhzgGctbGJXP966mkyZygdKw0B0BHUyKdFLMOTcI3y6ClRHbEHiZ7OTR60vEkOOjwNezsug/8w1To3ASBKHw22vW1bjP7/QsNU7aCp6l3qMQGc5Wc9lec3pnSE0pEuAqAjqAlO0+z5VNur4kXuzucVw8qTVtNMutsoG/tMYMmOS85RAGglgCbYVY009897OOpvyqgS+lOylYvn3AMCIN8a2i/gVZbsXwN3VJCfAW+bek1UZvqmw+Dfl9j0589RAIjq4YkN6UurjaSeu9qO9mZm9qHENPo2YG2NXWqIcA7Ul1d1/iTbovasKARAT2Ajn377gDau13hRXj0v0nNDrKotbH/+ycgcjcF/bOIx15urABCdW5uZdozbbhyb/3/PzF5pZndbbRqk2bhVuFZLvM00vN+10Yj2LigxRDgHSuWn/dVzDwiAvGvopGb2gYC2/pDAYmqnv9Q2UcXTq7UoXwWtRWPwb0WU7QlzFgCCLu9f8g2gzUD+e/33+tUcFe3Gpy1q9S57O0RtflM1xi6fl93OREH/vyCgw+rCaPOcTxXCBwGQf0UdEvDK8Kdmdu6gosq1r3cLbrWVBwTlpzEZBv9GPNkfnLsASKmAiBnum4NVl++RdxApZd6Oc0oz0wYqWlWhGcpN4UAzk0OeLuWMOuepTRnK6BgCIKPKaMiKtpX22uamb4uGS3U6FPFqQm0ySpTszDSD/04sRf2IANi7uiLWuKd0JNraM4dwOTN73WoOhe5oqnJoQuUnVk9T9GjyujWC4OEb51fxhvw8NAdYHfKAAOgAKYNTftvMfuy0YbWTyweVRTuaaoWBtw29LCg/+yTD4L8PkiJ/QADsXW0RO3SlNFotm51yVy+9C31yx0ehx5mZBMuDzUzOfDR/QcJJO5OllL1vnKlZ7W0xzf8hAJr55HQ0ou1/2MzUliLCxQM231Lb0lgdGhj8Q3FOmhgCYA/+CD/3fQezzfOvtycro397hmPw1iRGLT36T0camxzavr97dDrpF0QApLMbO6Z259MqoDb7azseuTrlWQH50dM77ZIaEhj8QzBmkwgCYE9VROx019Y5NB3/+z1ZGfWblgw15Su3Y1l4O+tYQwiAjqAyOe0WAW1BDqqinuad2cy0hba3Dd43gi+DfwTFvNJAAJxQH+IQsdf9OxyN9ZMTmcZ7HXn2dkwp8TVPoZSAACilpk7Ip9696/VWil1uxnl0YLEjtjD+oXfzIgb/wBrNKCkEwAmVEeHQRh799LfZEfT9rslIYwZdr28epzxfHVnY48wRQCMARoAcfAm9e/dsUKX2oS2vN/2KeLKoOQXvD2in/5SaCQb/VHL5x0MAmEU4/fmcmWnp3AWdDfW2I5vM1O58+4qJ147Mx3s5BICX4DTxX+hsx7JrORiLCpcMECVapSA36b0Cg38vXMWdvHQBEOX0Z3Mv7v9xdB4vGtmCbuzIa9/BO+L8e47Mx3s5BICX4DTxD1g5ENPkVq/NXj0w+9o63JsfbeDV2esog39g7WWa1NIFwJ0CGtX2jmAez3hj73Cn9+neTmXM+BfOtB3VZQsBUEcm/9/lSc9r2x/vM+C2IPktM5Prcm+e7t5yneMP65HDpjMQ70UVny19u5Af95wlCwBt4OF1uanHaloLvxm8M4nPtZnYwN+19ElbiEa076HT0H7ppQUEQGk1tie/pzIzz3bVVXu4654k3d/uFdBWv2tmZ2vKiTYR+GLAhSoA+mTwbyI+3bElCwC539200ZTvciG6HaTUJQxS0lOcK20nOPD/z3bkNbWMKfH0Xra0gAAorcb2zu9NAtrGd8xMy/kigh7ffywgT9rxtDZoZ7SUBloXh8G/FvXkB5YqAM5hZj9y2vnPzeygmhr8qCPtsZe5yQHStx35rWv30b/fqoZ1zj8jAHKunW55e2tA23hit0t1OksT+Tw3GGqXWuWgp/w7w9sCClw1fgb/nYiz+XGpAkAKuLLR1M/HN9SijqWkq4atJwhjhysH+EJPKW/XOOJy9rGhBFwPARAAceIktCGW10eI3GdfILAc2nioa9upO09LC3e6LY7wPKSLMvgH1vhASS1RAKjM3gatO2ZtNVwXLpHYQD9Yl+AIv/+hmR2VmO+6Tibqdz32LDEgAEqstX3z/JyAdqFtyKPyJxEgAAAgAElEQVSCxHDEKoU77sqQ1wkCg/8uqnn+tkQB8KaAxqzJOG3h7QnXuVlbogMf1x2BVv9oyZEm3UUN4N50njRwuYdKHgEwFNlx042agS+/G1Hh8ID2eayZnWk7Q97Gyp3/NtF8/1+aALhGQKORfcvpT1s4b08/3q9oS3CC4+dZrZS4i5kdEbQEKbVview4x8SIABiT9rDXul9A3/GpQE+W6oOUXmqbquL9wza26kDKJ4P/Ns28/1+SAJDTn6MDGsyNelSpHqt/ucM1X2dmWpKXc9AMZE1Q1GY8R5qZtuVN6SP6xtFkTS3ZLDEgAEqstd151oD76QCbj3RmdbWA/Oh16MU2i9y3gW6ef+BmQnzPnsCSBMAdAhqLBr6+QXMFNClw1zs7rTOWMyJtQlJa2M/MDl0tcdIdhDYy2uwHIr8/rzQwG/ktWQD82Mw+z99eDL4fYOdah3+WDRvxfn1VQJ60AdKJfZCn8XoLQ/xxCSxFAOgO8mvOhqKZ6Jd2VI/uIC67GixvamY3NzPNLj6x0TnSzSWq3KceZmbyK/AVJ+uqD5JoGnuDpEieJQuAqg74jBe3Tws0MjkOk1jz1tOJy2w9CQWWi6RGILAUATCU058RqqjYS2zOH9j19KOtn9GOatcptvQnZBwB4B+Y2uykxON67K6+Nyo8OEAAyCuqnAC6lERUgUhnHAJLEAC6M9U2sp6OQoORJvUR0gjo6Yc8HD5yvbVp2zJMPXredrGcduVpYyEAfO3O02ZzjysHQ1FBbos1/85b5tspQ55EogpEOuMQWIIAiHD687hxqmMxV9HSI02mfMZaEOjuQ/MhtIXqbTqusigBFgLAN554xqIS4tZ640swbs3H8Zb5eFHiSSQh30SZkMDcBcCFAmara9JOlC/vCauaS09AAAHgH5Q841HucRt98ifYq5wNecqsrcxdCSTkmSgTEpi7ABjL6c+EVcilMyaAAPCNJ57BrIS4Hwm23YPNTHuUpJZdTgCTI+uihLIIzFkAXMVpy7JnvYvW+zUCBFIITC0AbhjQBlIHE+K1j6XfSzGqljiPctY5AqAF8JwOz1UAyKXth50NQR3YjedU2ZRldAJTC4DLB7QBBvL2gTyV0U8HsEgteU7Nj+L5Ig9QIJIcjsBcBUCE05/3zmyd/nBWRMp1BKYWAGcN2PjKM5gQt3k8HUIAyBY93H2R61oCv2dJYI4CQC51NZnF0wjk9EdOewgQ8BCYWgAo7xH72XvaEnHr+yIEgKd1EddNYI4CIMIpxkvdZEkAAmY5CAD5U5CgZSDOjwECgF5iUgJzEwDatjPF69xm5yinP+ebtFa4+FwI5CAAxDLCE+ZmG+F7jJhAAMylpRdajrkJgOcE3Olo4x4CBCII5CIAVBbtHz/WDo4IhG4CAQEQ0cpII5nAnAQATn+SzYCIAxHISQCoiBc0s+eb2bcChDKDfLdBvokTAmCghkey3QjMSQC8MaBTu3c3bEWddc71zoPaVU/LIwnjEchNAGyWXN4ttWFTaX8Xd7RzrbuPLu+FHflBAGxaJN9HJzAXAXBlRyOsFPqcnP6oc5dDkC9vcfmmmWkr0gNHt7RlXjBnAVBqjZxly6ar9tvl89sDFFqrjrpce9c5CIABKoQkuxOYgwCIcvpzk+7Ysj7zEDP7ekun9KP1ZjxZF2QGmUMAxFciAqCd6S6x0fW3ZDWjCxDKIjAHAXD7lsGui+HPxenPNVaTvXRX0aXM8vt93bLMtbjcIgDiqwwB0M60S/uvO6dT51EbuT1vnJERgdIFQITTH9nyHJz+aPD/WcfBv2q/3zEzbc1LGIYAAiCeKwKgnWnVvlM+EQDtfGdzRukC4EE9B7xdDeJlM6jNlMG/YiHHSaWGi5rZU8xMT3A0h+MDZvYMM5MP/BwCAiC+FhAA7Uyrtp3yiQBo5zubM0oWADj9OcEMPYO/OoiPFmjN+5vZi1rEn1aFaAXElAEBEE8fAdDONGXgr+IgANr5zuaMkgXAs1sGgMqgmz6fWHhNegd/sTmusE2PNPhrH/Wmeq2O6anAuSasYwRAPHwEQDvTyv5TPjs1rLqE27PGGTkRKFUARDn9UWdSaogY/Kt2rLkUpYSXdxz8q7K9y8xONlHhEADx4BEA7Uwr20/5RAC0853NGaUKAL23TzHuzTj3KbgWIwd/OUcpJWiy5mYddv1+y4kKiACIB48AaGfatV3sOi+pgVUJtWeNM3IiUKIAOG/AHudfMLNT5VQRPfISOfir3f5bj2tPfepzEwXA0RO95kAAxFsMAqCdaTUep3wiANr5zuaMEgWA3tunGPZmnJsWWoPRg7+YHFoQi2McdT/FygAEQLxxIQDamW72dX2/uzrX9qxxRk4EShQAn3EMAmoM75vobtBb70MM/m/1Zmrk+HJl3LdDq85/wsh51eUQAPHQEQDtTCubT/lMbmC6GKEsAqUJgPM7BgDZ52/M7DJlVdHxuR1i8P/sal+AsxbGQq9uUjo1xfnEBGVFAMRDRwC0M01tI4qX3MCOj9yeN87IiEBpAuAwp30ekRH7rlkZavDX7oClhVc66v+XE8z7QADEWxgCoJ0pAqCdEWeYWWkCwOP57xdmdr7Cap3Bf+8K04ZNns7tInsnN/h/CIB4xAiAdqaeNuJqYO1Z44ycCJQmADwTAJ+TE/gOeWHw3xfSyc3sqw4RcLl9kxz0FwRAPF4EQDtTBEA7I84o8AnAUx2d/+0KqnEG//rKeo3DBq5an+wgRxAA8VgRAO1MEQDtjDijQAHwOEfnr7glBAb/+lo6iZl5VoEcUp/0IEcQAPFYEQDtTBEA7Yw4o0ABcG+HAPiJmV0h81pn8K+vIA3+j3DUvzrFc9cnP8gRBEA8Vo8A0HbZ2kMk8u/5Dpv8aTye41NEAAwEdm7JljYH4LqOxqZGoWWA2jpWO8k92syuZGYnzaRShxj8VeYjzUyrH0r+e5WZfc5Z9xKApxi5rhEA8cA9AsAzMA4RFwEQbx+k2INAaQLgzOtBPLIxajvcqX0DaPBXZxBZLtLam+fbe7SLqFMRAFEk96SDANjDou6bp+27OqG6DPF7ngRKEwCieNQAA6WWCN5soiq6spnp0aSn0RK3nd+DJ6hfBEA8dARAO1NPf+DqiNqzxhk5EShRAPzlQIPlz83sj0auHO1V/+2ByuPpBOYWV69+Dh65bnU5BEA8dARAO1NP+0UAtPOdzRklCoBzmJkGa4+R18XV+/Ixwz8NVI668i3193eOWakb10IAbMAI+ooAaAfpaeeujrU9a5yRE4ESBYD4PX3AgXMsb3GnH1DIeDqAOca92kSNDgEQDx4B0M7U04YRAO18Z3NGqQLgnGb2w4FEwD1Hqt1rDpR/T+OfY9y3jVSfuy6DANhFxfcbAqCdn6cdIwDa+c7mjFIFgCrgzgMNoI8dqXZvP1D+PY1/bnF/ZGYHjVSfuy6DANhFxfeblnL+eiZt52s+FLWxPe0YAVCLdX4HShYAcgyj9eEeY98V96EjVfMtBsj7rvIs+bfbjFSXdZdBANSR8f3+pZm0nXf5MNTG9rR5V4damyMOZEmgZAEgoKc1s/cHdwYamMcIlwjOt6fRzzHuw8eoxJZrIABaACUeHnIO0Jht4f6J5W+L5ikDAqCN7oyOly4AVBV6J/ieoMFUqwvkbGiMIA+EegToaazE3c3vMWamJ0RTBwTAMDWg1zry3VGy/X93wL7Gw8UFdZjqJtWhCMxBAIiNngTI1a3H8BX3KUOBrknXs7eBt6xzjC8Bd7ca1lP8jAAYjvrhAe19qjYgvxQ3Hw6Nqx/0RR6wUCQdT2AuAqAic1sz+15ix/BxM9uvSmikT+1vLxe1U3VEc7ru0as5IX8wUr11vQwCoCuptPMeOYBr8KHbxC9HEKmeMrg6o7RqJNZUBOYmAMRRj/D1CLjPMsEPmdmBE1WC8vsRREByv6PtgW+92inwZBPVX9NlEQBNdGKOXTXwFaBn4GyLq5UL/z6St9G2vDQdT26ISpRQFoE5CoCqBk5nZrc0s1eb2ddrBtgvroTCfVeC4VRVpIk+EQHdn4KoI/2kmT3LzC6fybv+OrNBANSRif9dWz0ful4efBczy+XvjmamXUwPiC9ybYpNA3zbMQRALdb5HZizANiuLTkPuuRqO2A54NHuexfYPmHi/4cSAZobcVjhfzdab92sR/xnmLie+lweAdCHFudGEWgb5JuOIwCiaqGAdJYkAAqoDtvfzD5Q87SiqdE2HfuVmd2qhMLPMI8IgBlWagFFauoP2o4hAAqo4KgsIgCiSMalgwiIYzl1SgiAqWtgmddvG+SbjiMAFmQzCIA8KxsRkGe99M0VAqAvMc6PINA0wLcdQwBE1EAhaSAA8q0oREC+ddM1ZwiArqQ4L5JA2yDfdBwBEFkTmaeFAMi7ghABeddPW+4QAG2EOD4EgaYBvu0YAmCIGsk0TQRAphWzkS1EwAaMwr4iAAqrsJlkt22QbzqOAJiJEXQpBgKgC6XpzxlKBFx7+qLNOgcIgFlXb7aFaxrg244hALKt1viMIQDimQ6VovwEfDh4ieCxha2rH4rtUOkiAIYiS7pNBNoG+abjCIAmsjM7hgAoq0KHEAEPKAtBUblFABRVXbPJbNMA33YMATAbM2gvCAKgnVFuZ0SLAD1VIAxDAAEwDFdSbSbQNsg3HUcANLOd1VEEQJnVGTknQPuqn6RMDNnnGgGQfRXNMoNNA3zbMQTALE1id6EQALu5lPBr5JOA05RQ4ALziAAosNJmkOW2Qb7pOAJgBgbQtQgIgK6k8jwvQgR8P8+izSJXCIBZVGNxhWga4NuOIQCKq+70DCMA0tnlEtP7OuB1uRRkhvlAAMywUgsoUtsg33QcAVBABUdlEQEQRXLadDxPAm48bdZnfXUEwKyrN9vCNQ3wbccQANlWa3zGEADxTKdKMUUE/CcTAAetLgTAoHhJvIZA2yDfdBwBUAN1jj8jAOZVqxIB7+/oLOizZnbAvIqfXWkQANlVySIy1DTAtx1DACzCRE4oJAJgfpWtGf3PMrNf1QiB35jZy81MYoEwLAEEwLB8SX03gbZBvuk4AmA301n+igCYZbUeX6iDzeyBZqZJfu8zszeY2SPN7KLzLXJ2JUMAZFcli8hQ0wDfdgwBsAgTOaGQCIAFVTZFHZ0AAmB05Fyw5slf28BfHUcALMiEEAALqmyKOjoBBMDoyLkgAgAb6EoAAdCVFOdBoD8BBEB/ZsTwE6ju5lM+eQLg519MCgiAYqqKjBZIAAFQYKXNIMspA38VBwEwAwPoWgQEQFdSnAeB/gQQAP2ZEcNPoBrMUz4RAH7+xaSAACimqshogQQQAAVW2gyynDLwV3EQADMwgK5FQAB0JcV5EOhPAAHQnxkx/ASqwTzlEwHg519MCgiAYqqKjBZIAAFQYKXNIMspA38VBwEwAwPoWgQEQFdSnAeB/gQQAP2ZEcNPoBrMUz4RAH7+xaSAACimqshogQQQAAVW2gyynDLwV3EQADMwgK5FQAB0JcV5EOhPAAHQnxkx/ASqwTzlEwHg519MCgiAYqqKjBZIAAFQYKXNIMspA38VBwEwAwPoWgQEQFdSnAeB/gQQAP2ZEcNPoBrMUz4RAH7+xaSAACimqshogQQQAAVW2gyynDLwV3EQADMwgK5FQAB0JcV5EOhPAAHQnxkx/ASqwTzlEwHg519MCgiAYqqKjBZIAAFQYKXNIMspA38VBwEwAwPoWgQEQFdSnAeB/gQQAP2ZEcNPoBrMUz4RAH7+xaSAACimqshogQQQAAVW2gyynDLwV3EQADMwgK5FQAB0JcV5EOhPAAHQnxkx/ASqwTzlEwHg519MCgiAYqqKjBZIAAFQYKXNIMspA38VBwEwAwPoWgQEQFdSnAeB/gQQAP2ZEcNPoBrMUz4RAH7+xaSAAJi2qs5uZlc0s9uZ2cPN7Nlm9i9m9nIze7OZHWFmLzSzp5vZ35jZzczsUmZ2+mmzzdU7EliKADjAzK6wtuOHNdjxM8zsAWZ2czO7tJnt15Ejp/UjkDLwV3EQAP1YF3f2Bc3sXmb2CjP7hllyff/GzI5ZD05q0PsXR2L8DB9kZvc0s5euOssvOdj/ysyOXne0t4T9+BXZ8YpzFQAq1z3M7CVm9kWnHX/MzJ5rZrcyszN35MppzQSqwTzlM3lA0MXuwl+2DB5pZp9wNNY2Y/rF+q713tjAPjbwUDM7akD2x5nZW8zsPrDfh/2UfZKe2rS1m7rj38qwLh9sZh92lKmurNXvvzSz/zCz+2VY9intqO+1K54pn8kGm3Ix4qR3ELCDHTaADWAD2ECkDSAABlS4kRVFWjR8bAAbwAawgUgbQAAgALABbAAbwAawgQXaAJW+wEqPVJCkxR0JNoANYANl2gACAAGADWAD2AA2gA0s0Aao9AVWOmq9TLVOvVFv2AA2EGkDCAAEADaADWAD2AA2sEAbsB8vsNCRCoq0UOTYADaADWADJdrAoM5iSgRCnmnI2AA2gA1gA0uwAXsCTwB49IUNYAPYADaADSzOBuz8q41H5NZ1CWqHMlLP2AA2gA1gA9jACTZw/C4Dj0AAIICwAWwAG8AGsIFF2cDxAuCkZvbPVPxiKl6bybzHzJ5jZn9pZtph7gZmdvXVBkKHmdnt19vVvmy1a9fnsItQu9AGKO83s+eZ2eHrXdFuaGZXW7PXVsHaTOhfzezTsA9lz11f3J2/dqj8QIsdP2S9g+CnsONs7fjEfQYlAp5CRWVbUd7OS6s9JPL+xMxOd2Ktd/tyrtVWwn+2Egjvxj6S7ONn6wH90IQ90Q80szuZ2TvNTFsye+2A+DBMtQHZsW4KdLNwhm5dx4lnndPM7mBm7zCzX2PH2bTjEyuo+vJXA3Y0/7Xe0/zZfNouBt8boGF83cxUp30bbGUP258XXgsJ3cmmdiR18T44oV1oO9a6fKX+fqyZPXAlrPffhpj4/8Fm9vyB5ux8dEL2u9oCv9nOPqKNyzcHsONvr8YEbQ185kS73Y523vXTxyHmnn1sgXac2j8p3s6gR8JDVI4GuCvuvCI/6hGwpyK34/7czB5mZqcZCO0FzOytwXn+woD5bcJwSLDo1SuWxyY8aWnK4+ax85jZ64PZ/2/C04nNPPF9egJ/HHx3LZGvVWL7DVS03zWz1wTbsQRQlOAeqNjhyW73/X3+r82MBqQfBleOMqaBSe+ZCXsInMLMPhnI+sOrR84aoMcItzGzHwXmXe8NxwwnMzPx6tNoms49xsx+b6QC3NTMvh+Y98ePlG8uE09AdnxUoC2oP7pofDZ3pngjM/tuYN7/fudV5vtjU3/UdqyRyh+ame4M2hLpe1zvgO7ZeOVlHbxfIONnmdmpRsZ3QTOLmujzUzM794j5v2sg+38ys9OOmHddSk8D9Pi+bxvcdb6eXIwlHEfGNPvLaeLurjpN+e0lAz69qqsIPQ2IEuJ6cjGWCK8rz5i/p9RxFac1n6qYqM69umj1KaWmyYdLDqc2M72nr5h4Pv9uQpBnWs1kPzKoHE8fqRx68vKloDzLlk8yUr63L3N6M3tLUDkkYghlEZAdfz6o/qfskzU5+U1B5dAqmqUEz5jRidFZzey9QRWzndkXmdkpO+Vinif9RRBXLSmbOqgBvy+gPJptfMAIhdGSu217TPn/4SPkte0SEpKaYZ2S/804egow5hOYtnJxvJ2AVols1mHq9ylvIKpS6ullxNwiLVM8X5XozD9T61vxOgc92nxtkKFtZ1h3L0NNNOlcwAlOlHL/YgDTJ06Q97pLnsXM/jugTI+pu0DQ73ryFDHvQq9ccglnDHod8NRcCkQ+OhHQzPftPrXv/y+Y8AnWdiE1FnwooExaMbGE0LeuN8/vxefk6+UbmwlEff+ImZ29V27KP/n6AUb+djPTBKCcwkVWSw9/4iyblh5JIA0VrurMn+xeTzuGzGNK2bXEyjsxUJM6x57LkFJW4phdOcCONdiOPW+ore70FMo7MVDziZZwY+kZg9vqYedxzdT2XLQurpaBaW+CpYQjnBw1SJ4jU1gRjyWvN2DZdMdTZ4ddfv+BmWl+TI7h5s6yqfx/mmPByNM+BF7orGs5CJNozDFodUCXtth0zm1zLFhwnprK33YsOSt6f6r3hW0X6Hv8O6t3QJdNzlU5EeWYRwq1L5/N8zXI5ho0IU5PJzbz2/f7SwcqnN6Xe++S7z1Q3qKS9foJUHxC3gQi7DiHuUNNlL1+AvR6ee6hb7+6eb6LzXUDHvVuZqb6rsfHSnvOQevnq/KmfMoPd+4rKH7f6ZhEAmmIR9HeO4uPm5leh+UcNAHKI9AVN8rzW86cSs6bXEun9B1VHO01kdsrrO360FM2+Y6p8tz3U5MBf2s70Zn935fJ5vluFJc0syHcT6ri5H9+rsG7+dKQj8cjmb/C0XhlqHJIFR20zHCzEfT9Xsrjce/jYfl8J+RL4GlOOy7l8bg2LevbRjfPl8OsOYfNsvb9HsJF7+31/r7vxbucP7ZnuBAgHRL5soOX7kCnWnPeoWh7nfJHjnLKPh61V2ox/4hfF9vbdY7sPLdJl3VU5KDJs4HQ0jyq1XHM9XfPapuvFHD3X3HXHAXPBkLPrBKa6eeufqrrb2FININfM/m7XrjPeVKAuT9y7QPyICcneQ4sKRztKK92IIwMehzoGRRLE6SeHRxVb4Q8CZzN0abU9w4hrIck5fFxIUd2cw59xtLtc0O5aMlFlEey7YzKJbG8Xc3hz+NeWUo4aua/niLoPaK8v2knPr0T1I6N6hx09xgVtBvhdn12/V+vgiLr/GuOvCjPUTOmxf7aZqbVCJrP8Rkze9d6EyHNnYgKd3OUV0Ipkv3c01Idqv08erVt7oWiKrAmnas76lV2HNm+r2lmz1vZ8/vN7LNrj6CPC95L4I7O8s7Z9rr2pbvOqzGv9J/l1U/e/XZdjN/8XOQvOyLI53uTsw0NvHIIE+GlUX6551D3EkgRQU+A3tPARCLvuUE7I2oS1RzYl1YGtR/NNRlqfb1HVMv5WEQ411q01tWN7PgfgybyHogdD9KOI+xgnzR0d6PtUOsMg9/T2Wh7Tm/QLl/amrlLPfxHwLtC2cM3Ol6vS56mOifC65/uvI7tyEKP7yO2c9bdz1TMln5dLYWNENHbbd4zMU5PnbxBq0y6tmk9GYhYzTPUnjRLtlGvHTTG145/nskbS66YurLfopF4+0H56++7AU6Eq+GoTT7quIzx+13a8TaeobvBvhO31NF7w8sRAJMKoKd4K3BH/Dc66lT7j3iClg72nUirJwHe8GJHmcfoH0q8hrdOWuMf5lzHWSLUIfOsWfWe8ICERqQ14Xps7QnqBIfkMkbaV/QAMLN7JDCQgJZrZU94ZMJ1x+C5lGuo/URvTOPx/6/5A56g5dl96052rCePnvDghOv2zefSzvfUR+e46ji7PnJeWgX0La92ZvSEvnegVf4kHDzhPjNovF7Xv5poWfHs86lJZZ5w58Tr9skj5zbX7YM8Fbgjbt+neJv143W33jR/ZfM6298fv6McfX6S34LtNPnfx6QPf9e5mgimtadUmI+BZ1KRPLul8ve6hvXO4k3Nd2Q87XSYGvQeOHX54TtTL7qOdzNHvUfyW3JaegUWGbrOI9nF3LOKSD4wNMFxV7ptv3mX9N4w8bpt+Vry8UibbE3rdxLeHS25crbL/stWws0naOb/dppd/9dSNU+YwyAk3+up4ZwO9t51zNdxXLurfXBec9uKWr1T2Z82o0plrn1IUoPH/8DnUi+6judd+pjKa67x9Fpm9LC/memOZq5Qhy6XxyHSAQ7u/+60FG0eNTSbodM/o4OBZkGn5k+PXD3hJo5rp+aZeHvXt1bTRAbPEwAN4qnB8yRLr8A8wbv3ATa5t01+3VMZnri6k/L6iF9qZZ7JAV6bB6nSU9h5lx+mTIBLyeeQcfQEyxN0B5SSP+/yw9snXjclr8TZXcdP9hjOjriptqT68TqzSl2O9/wd5ejz0y2x46T+o65Nem/q+tTdPudqMJKjmbrM8ftuNhfeh2S/H1I3ELlUv8vsc/ZjZlDXUzG46j40+/3wwBmwL70/OKRflbWefZSjTi/XmnrzCQ9PvPa1mpNtPepxflS6/QyR/yy2k/9rx+SoIaDknqYmwnjCbyds4fxazwXXcV+V2GnkVB+3dnLQCo6+q2HkA90bvDtP5lQHJeblDd4K3BH/Px3tSRNyPUGTib/T8/pyc+0NcjdcYv3nmGe5rR7CQVVSHd/GuXd5joCHypPWwnqDtsfsOiNdy40i9tOWj/ChmIyVrvybe4Mm5HWdRa3XNd7XDsqv525xLLZzvc7/mJk2SosOnsEwwjGR/P9rUnKXetN28ecOACCPgl2uxznNnH5sZhcLqI/QJK5sZp5NcpZS6XItGhFubGY/bGlQmrQTMQApjTnUj3clRFVvEgFtTwLk6MX7rlbX09JFvHFOY3+a+S9/+UMEz+PwjwZlSCKg7UnAJ8zs4IDraQJuV8Exh75mqDJIkF4ioD4GSUIrBP7WzI6ZyYAxRCX+zMxOH0RfqwJ0V7vpK153p1qloVn7Ufve32Em9Sk2Hl8Am9WmdLTroh7FVXaigVprpeVyWO5WI4Ke9lTp8zk8C9mIdgSUzUe1n1124JkRr6d/avsRQZOSNSdg08GY7FgrV7QTZZQd3wA7drVjPQU8PGhPhgi7aU1DKwWkns8zwz9tA+vpjPXKJDpo0xk9qhyi03qro7yacRxpA1dw5EV19ufR4M1Mti72niWeddl6jaO8Xw5mH1mPOaYlXw9DtJ9ddavye/qQe+9K1PnbkHZ8hKO8erKco72MkSc9fc3mXb/TvmYTXZ1E2yPgpsb9toJIyAA9j6CfMUBZv+boTPQespSg9d6/cJRVkwcJ+RKQQGvqJ5qO6Y6wlKCnDHry2VSepmP/WkpByedyCMi1bpPRth3L9j3OVhV6NwHSIyV7wasAAA0TSURBVOzo8FIn+8tHZ2ig9LybAOkxNiFfAi902rF3eelYZLybAN11rIxyHQh0JXAvZ+PVsrrcg94z/sRRTr1PjViBsM3Juy/BW7YTzPB/3TV938Fe74kjZm5niGY2WdKrwLYbhabjWkqYe5Db4raJhk1l1LHonRhzZ0b+CiCg94WeR+My7KtkXk7vHUq0+9QKlwZHz6Nxsb9elVimn6kOn6rO9H2Zlots7SGgiaReO9ZqoJzDk5wiJ3oPhpxZkbfCCMg5RtXhpnx+cj2BLMdia7JdV18DdWXXbPihgnZnq7tul9+/GLgaI7qMej2kpyddylF3zn2jM0V6gxDwTPJU3WtZmGdzoEEKtU70ogFL/+4/ZAZJGwIeAlomU9cBd/39mZ4MDBRXdybqWLqWYdd5Pzczec4bKsir367r9vntRUNlzpGuOnOv0yWtt5bHSEL+BG4UYMeaE5Nb0FLn1D0HqjYsEfy7uRWM/ECgIiAj96wGqAzd66K2yk/Ep5ayee+uVa4XRGSmIY1Tmdk3AjpPibhcgvbXeGVAmbTkilAGAdmxPO1VfUHqp+Yk5RJOYmbeibri8OpcCkQ+IFBH4PEBjfc4M5NvgamDGq52/ErthDbj6fHf0OEhAXnVXYa2280heFdcVPz/OIfCkIfOBB4QYMeajzTEipvOhdg48YkB5ZEtl7JaZ6PofF0aATk70uPuqvNN/ZR/Z+9uWx728m2g1xGp+d+M92ZPRnrE1QoDcdu8dsp3rVGWp7KpgoRXVKd55FSF4LrJBPTaJ+JJoiYUHpacC39E2XHUrqEl+evwkyOFogl4Z7pWg5aeBNx2AhJ6lRG125/uRC4+YhlStzatmFefehIwxesAeXB8cYCIqcrBXdOIxhd4qSg7Vvu7Z2C+uialVxneVUOVDesz9xVSXblw3gIIaFmad63rpvHLg9tpR+J2weC9G/5lpHxXl5F4iZgLUPF/hZlp45IxwvlXTx60sUt1be+nZpQTyiSwn5l9NdAWJOi1N8sYQf4mtOzUa79V/CG2Xx6DA9dYMIH7BDYANQTNBB/ylYDuPHXXEfH6omq4P5po1u6dg9lrC+XrD2jLulvSe1+Pk6WKefWp1xgSc4RyCdw82I61kmdIPwHaKEjL9CJew1V2rNcYFym3Csn5UgnoHbp20KoMOepTM/IvGwhVg48edWuQi8pjlc5fBOazT1J69yinQ1U+oj61Z4O2uY4K6jDlxfBzA+SV9dJRtTRtOp6Nt+rsXh4DrxZYLNmxdhvd3Amz7tp9f9dusgQIFElAd2CeTS+aGst71wN36na2mpX/BDP7+gCDj/L9jtUTBS1jmypovbCeQDQxTD32ofV71VS3xrqj0eSoyEe8m2XRhKkhdiKcqi6XfN2DgiYEbtpH9V0bCGkXQe1cmRIutN4C2+sjpMrP9qe8/kVtP5xSPuJAwE3gzwYahKrGoslqGpC0/FAqXEu+tC2l5iHonZ/89+vd8jVX8xLusTqm+QRDDTxVno5db/3shudM4FYDs9cEK3WimvSpjXYus2Z/5g32B5vZ1c3s7itf/P9oZp4d3yq+TZ+aPa5rEuZD4IYBXjibbEYePjX35MnrJ1J6wqg+pLJjCV3ZlJ4aaPtsLQ0e4onhZh5/wCus+Rjw0kvyvIEHos2GM/V3CRKJjVzC3y+IvTpyeZIjzI9AlE+IqfuHLteXHefii2N+lkSJRidw6uBZsV0a0VTn5OZzXo8Q9TpiKh5jXlfbrBLmSUB2/MaF2PEj5lmFlGrJBPQ4Xo+LxxwQxr6W7lJyDHKs8sGZs396juDJUygBLQWWY6ex2/WY19NrMk3iJUBgdgS0ZfDnZ9qAn515wz3byjWqdlscszMb61raxGjKCZeza6gZF0iTfj8xUzvWfgFaPUWAwGwJnCPY2ctYg0zTdZ5ayACkCZGaWdxUltKOydsaM/5n213sLJgm+L57ZnasycnM+N9Z3fw4NwJqwP81gwasyToPLaxy5ClQexOUNtDvyu/fZf7UpTDTKCq7pzMzecjbZRel/aaJujzBKsr8yKyXgDzvRe20N0WD/2FGu431rYtTmtnTCu485TFwij0i+nLm/GEJ6I5Z824kxKfoA7zXlI+UOw2LiNQhkDeB2wS7zvQ2yi7x9S59Du45tb76+4V1np9ebdT0B3mbNLkbmcChwXuPdOkDvOfIa+DFRubE5SCQJQF5DHxXAQPRL81Mj5319GIu4bwDuQ32dpDb8eVfQXd7eoVBgMA2AXm+HMJt8LYdev+X8yzNGdJmRwQIQGBNQEtf5DUwYh9wbyPdFf8DM1bsYi8vit/OVITJS9ulaCkQ6EDgZiN4+tzVP3T57RgzO6RDGTgFAoslIPeb8hMfuaNWl8ZZd86nVsuODlvIZDP5C9CkRs1vqOMx5u/aJEjujJkgtdjuIKngurt+2Gq/iu9mYsdfMDO96mSJX1J1EmmJBLRBh4SA/OqPOehU19IdvwafJTbas6470KE2SqoY133KYZT2FmBZ1BJbflyZJWj/ZrVp2Dcn6kOOXk/y06RbAgQgkEBA2/VKPb/dzPQeuG7QiPj9O6tNfF7A4+YTa0kd15+uNvl5i5kdNzB7TUbUWujIrZ5PLAhfFk1AfYgmvL56JQh+MbAdaxOff1n1V1dYNHEKD4EBCOjOVHeGrwzaxlcTcj62npSjnb5wKFNfaXo1IyH2sqB3rGL/8dVujc9cb57EXVI9e47EEZAnwVsH7kypJYjyTPgsM7v26qmlxAYBAhAYgYD2Cr/5ah2wNoGRRzitJNA7e23Vqfd/uqv81tr9sB7HaTMRzcC9j5ldY7WNrR4REtIInGvFWhOu/nbdmb5zB3tNKpTrZ4msN5mZ/PXfb91Ram8IAgSmJqBtf29gZoev/ZKoD9GkU9mtnghqUvKmHcuJ1jPWdvwn623Hpy4D14cABCAAAQhAAAIQgAAEIAABCEAAAhCAAAQgAAEIQAACEIAABCAAAQhAAAIQgAAEIAABCEAAAhCAAAQgAAEIQAACEIAABCAAAQhAAAIQgAAEIAABCEAAAhCAAAQgAAEIQAACEIAABCAAAQhAAAIQgAAEIAABCEAAAhCAAAQgAAEIQAACEIAABCAAAQhAAAIQgAAEIAABCEAAAhCAAAQgAAEIQAACEIAABCAAAQhAAAIQgAAEIAABCEAAAhCAAAQgAAEIQAACEIAABCAAAQhAAAIQgAAEIAABCEAAAhCAAAQgAAEIQAACEIAABCAAAQhAAAIQgAAEIAABCEAAAhCAAAQgAAEIQAACEIAABCAAAQhAAAIQgAAEIAABCEAAAhCAAAQgAAEIQAACEIAABCAAAQhAAAIQgAAEIAABCEAAAhCAAAQgAAEIQAACEIAABCAAAQhAAAIQgAAEIAABCEAAAhCAAAQgAAEIQAACEIAABCAAAQhAAAIQgAAEIAABCEAAAhCAAAQgAAEIQAACEIAABCAAAQhAAAIQgAAEIAABCEAAAhCAAAQgAAEIQAACEIAABCAAAQhAAAIQgAAEIAABCEAAAhCAAAQgAAEIQAACEIAABCAAAQhAAAIQgAAEIAABCEAAAhCAAAQgAAEIQAACEIAABCAAAQhAAAIQgAAEIAABCEAAAhCAAAQgAAEIQAACEIAABCAAAQhAAAIQgAAEIAABCEAAAhCAAAQgAAEIQAACEIAABCAAAQhAAAIQgAAEIAABCEAAAhCAAAQgAAEIQAACEIAABCAAAQhAAAIQgAAEIAABCEAAAhCAAAQgAAEIQAACEIAABCAAAQhAAAIQgAAEIAABCEAAAhCAAAQgAAEIQAACEIAABCAAAQhAAAIQgAAEIAABCEAAAhCAAAQgAAEIQAACEIAABCAAAQhAAAIQgAAEIAABCEAAAhCAAAQgAAEIQAACEIAABCAAAQhAAAIQgAAEIAABCEAAAhCAAAQgAAEIQAACEIAABCAAAQhAAAIQgAAEIAABCEAAAhCAAAQgAAEIQAACEIAABCAAAQhAAAIQgAAEIAABCEAAAhCAAAQgAAEIQAACEIAABCAAAQhAAAIQgAAEIAABCEAAAhCAAAQgAAEIQAACEIAABCAAAQhAAAIQgAAEIAABCEAAAhCAAAQgAAEIQAACEIAABCAAAQhAAAIQgAAEIAABCEAAAhCAAAQgAAEIQAACEIAABCAAAQhAAAIQgAAEIAABCEAAAhCAAAQgAAEIQAACEIAABCAAAQhAAAIQgAAEIAABCEAAAhCAAAQgAAEIQAACEIAABCAAAQhAAAIQgAAEIAABCEAAAhCAAAQgAAEIQAACEIAABCAAAQhAAAIQgAAEIAABCEAAAhCAAAQgAAEIQAACEIAABCAAAQhAAAIQgAAEIAABCEAAAhCAAAQgAAEIQAACEIAABCAAAQhAAAIQgAAEIAABCEAAAhCAAAQgAAEIQAACEIAABCAAAQhAAAIQgAAEIAABCEAAAhCAwLII/D/8lTIFgDBbbAAAAABJRU5ErkJggg==;" parent="13" vertex="1">
                    <mxGeometry x="29" y="40" width="87" height="87" as="geometry"/>
                </mxCell>
                <mxCell id="16" value="Data Compression" style="rounded=0;whiteSpace=wrap;html=1;" parent="9" vertex="1">
                    <mxGeometry x="210" y="80" width="120" height="60" as="geometry"/>
                </mxCell>
                <mxCell id="18" style="edgeStyle=none;html=1;entryX=0;entryY=0.5;entryDx=0;entryDy=0;entryPerimeter=0;" parent="9" source="16" target="2" edge="1">
                    <mxGeometry relative="1" as="geometry"/>
                </mxCell>
                <mxCell id="19" value="Thesis" style="swimlane;whiteSpace=wrap;html=1;" parent="1" vertex="1">
                    <mxGeometry x="20" y="390" width="460" height="210" as="geometry"/>
                </mxCell>
                <mxCell id="27" style="edgeStyle=none;html=1;exitX=0.5;exitY=1;exitDx=0;exitDy=0;entryX=0.5;entryY=0;entryDx=0;entryDy=0;" parent="19" source="21" target="22" edge="1">
                    <mxGeometry relative="1" as="geometry"/>
                </mxCell>
                <mxCell id="21" value="Data Preperation" style="rounded=0;whiteSpace=wrap;html=1;" parent="19" vertex="1">
                    <mxGeometry x="20" y="35" width="120" height="60" as="geometry"/>
                </mxCell>
                <mxCell id="29" style="edgeStyle=orthogonalEdgeStyle;html=1;exitX=1;exitY=0.5;exitDx=0;exitDy=0;entryX=0;entryY=0.5;entryDx=0;entryDy=0;" parent="19" source="22" target="23" edge="1">
                    <mxGeometry relative="1" as="geometry"/>
                </mxCell>
                <mxCell id="22" value="Feature Extraction" style="rounded=0;whiteSpace=wrap;html=1;" parent="19" vertex="1">
                    <mxGeometry x="20" y="130" width="120" height="60" as="geometry"/>
                </mxCell>
                <mxCell id="30" style="edgeStyle=none;html=1;exitX=0.5;exitY=1;exitDx=0;exitDy=0;entryX=0.5;entryY=0;entryDx=0;entryDy=0;" parent="19" source="23" target="24" edge="1">
                    <mxGeometry relative="1" as="geometry"/>
                </mxCell>
                <mxCell id="23" value="Outlier Removal" style="rounded=0;whiteSpace=wrap;html=1;" parent="19" vertex="1">
                    <mxGeometry x="170" y="35" width="120" height="60" as="geometry"/>
                </mxCell>
                <mxCell id="31" style="edgeStyle=none;html=1;exitX=1;exitY=0.5;exitDx=0;exitDy=0;entryX=0;entryY=0.5;entryDx=0;entryDy=0;" parent="19" source="24" target="25" edge="1">
                    <mxGeometry relative="1" as="geometry"/>
                </mxCell>
                <mxCell id="24" value="Clustering" style="rounded=0;whiteSpace=wrap;html=1;" parent="19" vertex="1">
                    <mxGeometry x="170" y="130" width="120" height="60" as="geometry"/>
                </mxCell>
                <mxCell id="33" style="edgeStyle=none;html=1;exitX=0.5;exitY=0;exitDx=0;exitDy=0;entryX=0.5;entryY=1;entryDx=0;entryDy=0;" edge="1" parent="19" source="25" target="32">
                    <mxGeometry relative="1" as="geometry"/>
                </mxCell>
                <mxCell id="25" value="Classifier" style="rounded=0;whiteSpace=wrap;html=1;" parent="19" vertex="1">
                    <mxGeometry x="320" y="130" width="120" height="60" as="geometry"/>
                </mxCell>
                <mxCell id="32" value="API" style="rounded=0;whiteSpace=wrap;html=1;" vertex="1" parent="19">
                    <mxGeometry x="320" y="35" width="120" height="60" as="geometry"/>
                </mxCell>
                <mxCell id="20" style="edgeStyle=orthogonalEdgeStyle;html=1;entryX=0.5;entryY=0;entryDx=0;entryDy=0;strokeColor=default;rounded=1;jumpStyle=none;exitX=0.5;exitY=1;exitDx=0;exitDy=0;exitPerimeter=0;" parent="1" source="2" target="21" edge="1">
                    <mxGeometry relative="1" as="geometry">
                        <mxPoint x="680" y="280" as="targetPoint"/>
                        <Array as="points">
                            <mxPoint x="430" y="370"/>
                            <mxPoint x="100" y="370"/>
                        </Array>
                    </mxGeometry>
                </mxCell>
            </root>
        </mxGraphModel>
    </diagram>
</mxfile>